<?xml version="1.0" encoding="UTF-8"?>
<svg width="1281px" height="366px" viewBox="0 0 1281 366" version="1.1" xmlns="http://www.w3.org/2000/svg" xmlns:xlink="http://www.w3.org/1999/xlink">
    <!-- Generator: Sketch 45.2 (43514) - http://www.bohemiancoding.com/sketch -->
    <title>Stride_Logo</title>
    <desc>Created with Sketch.</desc>
    <defs>
        <radialGradient cx="40.042677%" cy="88.4325875%" fx="40.042677%" fy="88.4325875%" r="87.7375915%" id="radialGradient-1">
            <stop stop-color="#B4B4B4" offset="1.21212%"></stop>
            <stop stop-color="#4E4E4E" offset="100%"></stop>
        </radialGradient>
        <linearGradient x1="0.00354070814%" y1="49.998821%" x2="100.005441%" y2="49.998821%" id="linearGradient-2">
            <stop stop-color="#4FBBEB" offset="0%"></stop>
            <stop stop-color="#0177A4" offset="100%"></stop>
        </linearGradient>
        <linearGradient x1="35.9255056%" y1="37.5080627%" x2="64.9319101%" y2="62.712206%" id="linearGradient-3">
            <stop stop-color="#01558B" offset="0%"></stop>
            <stop stop-color="#528AC8" stop-opacity="0" offset="100%"></stop>
        </linearGradient>
        <linearGradient x1="32.5018541%" y1="32.0511111%" x2="71.7708282%" y2="72.0854321%" id="linearGradient-4">
            <stop stop-color="#01558B" offset="0%"></stop>
            <stop stop-color="#528AC8" stop-opacity="0" offset="100%"></stop>
        </linearGradient>
    </defs>
    <g id="Page-1" stroke="none" stroke-width="1" fill="none" fill-rule="evenodd">
        <g id="Stride_Logo" fill-rule="nonzero">
            <g id="Group" transform="translate(443.000000, 76.000000)" fill="#818181">
                <path d="M160.5,143.1 L160.5,156.1 C160.5,167.7 158.4,177.6 154.2,185.5 C150,193.4 143.8,199.5 135.5,203.6 C127.3,207.7 118.3,210.6 108.5,212.3 C98.7,214 87.1,214.9 73.7,214.9 C55,214.9 31.9,213.1 4.3,209.5 L4.3,173.6 C37.7,178.8 61,181.4 74.3,181.4 C100.4,181.4 113.5,174.7 113.5,161.2 L113.5,148.5 C113.5,142.7 111.8,137.9 108.4,134.2 C105,130.5 98.1,128.6 87.9,128.6 L64.9,128.6 C21.9,128.6 0.4,111.5 0.4,77.3 L0.4,62.8 C0.4,45.9 7.5,33.4 21.7,25.2 C35.9,17 58.5,13 89.7,13 C104.8,13 125.2,14.3 150.9,16.9 L150.9,51.9 C120.3,48.3 99.4,46.5 88.2,46.5 C72.7,46.5 62.1,47.8 56.2,50.4 C50.4,53 47.5,57.4 47.5,63.7 L47.5,77.6 C47.5,87.9 56.2,93 73.4,93 L96.9,93 C119.8,93 136.2,97.2 145.9,105.7 C155.6,114.2 160.5,126.7 160.5,143.1 Z" id="Shape"></path>
                <path d="M288.7,213.4 C280.3,214.4 272.1,214.9 264.3,214.9 C257.5,214.9 251.5,214.6 246.4,214.2 C241.3,213.7 236,212.5 230.4,210.6 C224.9,208.7 220.3,206.2 216.8,203.1 C213.3,200 210.4,195.6 208.1,189.8 C205.8,184.1 204.6,177.3 204.6,169.5 L204.6,93.2 L175,93.2 L175,66 L204.6,66 L204.6,23.8 L248.6,23.8 L248.6,66 L288.7,66 L288.7,93.2 L248.6,93.2 L248.6,161.9 C248.6,172 250.1,178.7 253.1,182.3 C256.1,185.8 262.7,187.6 273,187.6 C276.4,187.6 281.7,187.1 288.7,186.1 L288.7,213.4 Z" id="Shape"></path>
                <path d="M409.6,99.4 L394.5,99.4 C382.4,99.4 373.3,101.3 367.2,105 C361.1,108.7 358,115.1 358,124.1 L358,211.9 L314,211.9 L314,65.9 L355.9,65.9 L355.9,91.5 C356.1,84.3 360.3,77.7 368.4,71.8 C376.5,65.9 385,62.9 393.9,62.9 L409.6,62.9 L409.6,99.4 L409.6,99.4 Z" id="Shape"></path>
                <path d="M479,48.7 L435,48.7 L435,13.1 L479,13.1 L479,48.7 Z M479,211.9 L435,211.9 L435,65.9 L479,65.9 L479,211.9 Z" id="Shape"></path>
                <path d="M663.6,211.9 L621,211.9 L621,195.3 C617.6,200.7 614.5,204.7 611.6,207.2 C608.8,209.7 604.6,211.6 598.9,212.9 C593.3,214.2 585.2,214.8 574.8,214.8 C549.9,214.8 533.6,211.7 525.9,205.5 C518.2,199.3 514.4,185.4 514.4,163.9 L514.4,106.9 C514.4,90.4 519.1,78.9 528.4,72.5 C537.8,66.1 552.5,62.9 572.6,62.9 C587.1,62.9 597.2,64.2 603.1,67 C608.9,69.7 614.3,74.8 619.4,82.2 L619.4,0.8 L663.4,0.8 L663.4,211.9 L663.6,211.9 Z M619.5,168.2 L619.5,109.4 C619.5,102.2 617.5,97.2 613.6,94.3 C609.7,91.5 601.3,90.1 588.4,90.1 C574.9,90.1 566.6,91.4 563.4,94 C560.2,96.6 558.6,102.2 558.6,110.9 L558.6,166.7 C558.6,174.8 560.2,180.2 563.4,183.1 C566.6,186 574.2,187.5 586,187.5 C600.3,187.5 609.4,186.2 613.4,183.7 C617.5,181.2 619.5,176 619.5,168.2 Z" id="Shape"></path>
                <path d="M837,150.7 L742.3,150.7 L742.3,164 C742.3,172.2 745.2,178.2 751,181.9 C756.8,185.6 767.8,187.5 783.9,187.5 C798.4,187.5 814.7,185.4 832.8,181.2 L832.8,209.2 C814.3,213 795.2,214.9 775.5,214.9 C723.8,214.9 698,199.1 698,167.5 L698,115 C698,96.3 704,82.9 716.1,74.9 C728.1,66.9 746.1,62.9 770.1,62.9 C792.6,62.9 809.4,66.7 820.5,74.4 C831.5,82 837.1,95.6 837.1,115.1 L837.1,150.7 L837,150.7 Z M795.1,125.7 L795.1,104.6 C795.1,100 793.2,96.4 789.5,93.9 C785.8,91.4 779.1,90.1 769.5,90.1 C758.8,90.1 751.7,91.4 747.9,93.9 C744.2,96.4 742.3,100 742.3,104.6 L742.3,125.7 L795.1,125.7 Z" id="Shape"></path>
            </g>
            <g id="Group">
                <polygon id="Shape" fill="url(#radialGradient-1)" points="137.392955 182.985737 68.7244141 251.654277 0.0558735074 182.985737 68.7244141 114.317196"></polygon>
                <path d="M362.283822,182.818116 L212.98981,34.0828395 L213.269178,33.803472 L179.85682,0.391114552 L82.9721585,97.2757764 L168.514498,182.818116 L82.9721585,268.41633 L114.317196,299.761367 L114.652437,299.426126 L179.85682,365.300992 L362.283822,182.818116 Z M147.338439,266.795998 L229.472495,184.829563 L144.712384,101.242795 L175.55456,70.9034809 L290.262871,184.606069 L177.119019,296.46483 L147.338439,266.795998 Z" id="Shape" fill="url(#linearGradient-2)"></path>
                <polygon id="Shape" fill="url(#linearGradient-3)" points="188.349594 83.5867671 225.449602 46.4867582 212.98981 34.0828395 213.269178 33.803472 213.157431 33.691725 175.722181 71.0711014"></polygon>
                <polygon id="Shape" fill="url(#linearGradient-4)" points="160.58046 279.982146 148.008921 267.46648 115.378793 300.096608 127.894458 312.724021"></polygon>
            </g>
        </g>
    </g>
</svg>