<svg xmlns="http://www.w3.org/2000/svg" viewBox="9 30 264.008 7.154">
    <path fill="#717073" d="M165.88 30.175c-.396-.068-1.731-.291-2.123-.363-2.108-.378-3.916-.872-3.916-2.994 0-1.822 1.91-2.671 4.287-2.671 3.537 0 6.639 1.602 6.992 1.779l1.938-5.114c-.744-.388-3.899-2.073-8.87-2.073-4.553 0-10.111 2.39-10.111 8.336 0 5.322 3.803 7.03 7.467 7.674.506.094 2.098.365 2.552.444 2.465.417 3.819 1.334 3.819 2.948 0 2.046-1.922 3.007-4.834 3.007-4.66 0-7.396-1.39-8.187-1.714l-2.147 5.004c.668.344 3.85 2.139 10.059 2.139 6.025 0 10.859-2.984 10.859-8.539-.044-5.169-3.521-7.13-7.785-7.863M184.277 9.424l-5.701 3.154v6.679h-3.002v5.453h3.002V36.5c0 5.037 2.069 9.559 9.37 9.559h2.284V40.6h-.855c-3.59 0-5.098-2.071-5.098-4.886V24.711h6.549v-5.453h-6.549V9.424zM228.823 24.282c2.226 0 4.507 1.012 5.188 3.461l5.175-1.967c-1.448-5.122-6.206-7.037-10.403-7.037-7.521 0-10.552 4.669-10.552 9.208v9.417c0 4.537 3.031 9.211 10.552 9.211 4.197 0 8.955-1.918 10.403-7.039l-5.175-1.968c-.684 2.446-2.963 3.464-5.188 3.464-3.872 0-4.899-2.121-4.899-4.539v-7.679c-.003-2.413 1.027-4.532 4.899-4.532M253.205 31.294l10.659-12.036h-7.012l-9.169 10.492V9.426h-5.706v36.632h5.706v-8.53l1.872-2.114 8.164 10.644h6.844z" />
    <path fill="#EE3124" d="M206.777 25.107h-5.93c-.942 0-1.708.766-1.708 1.705v6.434h-5.849v-6.434a7.553 7.553 0 0 1 7.557-7.554h5.93v5.849zM201.951 40.208h5.934a1.71 1.71 0 0 0 1.705-1.707V32.07h5.849v6.432a7.556 7.556 0 0 1-7.554 7.556h-5.934v-5.85zM105.258 19.258h6.547v5.453h-6.547v11.003c0 2.813 1.506 4.886 5.092 4.886h.856v5.458h-2.285c-7.302 0-9.366-4.521-9.366-9.559V24.711h-9.596v11.003c0 2.813 1.508 4.886 5.094 4.886h.854v5.458h-2.285c-7.299 0-9.368-4.521-9.368-9.559V24.711h-2.891v-5.453h2.891v-6.679l5.705-3.154v9.833h9.596v-6.679l5.703-3.154v9.833zM43.702 18.739c-1.805 0-3.634.349-5.281 1.046V9.424h-5.703v36.633h5.703V25.116c1.145-.72 2.795-1.15 4.407-1.15 3.584 0 5.271 1.993 5.271 4.933v17.159h5.698V28.119c.001-5.409-3.918-9.38-10.095-9.38M72.604 40.728c-1.084.585-2.456.92-3.821.92-4.255 0-5.855-2.168-5.855-5.158V19.258h-5.703v17.335c0 6.74 3.896 9.982 10.856 9.982 3.334 0 7.025-.843 10.223-2.228v-25.09h-5.7v21.471zM22.056 30.175c-.394-.068-1.731-.291-2.124-.363-2.104-.378-3.915-.872-3.915-2.994 0-1.822 1.908-2.671 4.288-2.671 3.536 0 6.638 1.602 6.992 1.779l1.938-5.114c-.74-.388-3.899-2.073-8.872-2.073-4.549 0-10.11 2.39-10.11 8.336 0 5.322 3.799 7.03 7.469 7.674.505.094 2.097.365 2.555.444 2.464.417 3.812 1.334 3.812 2.948 0 2.046-1.917 3.007-4.827 3.007-4.665 0-7.4-1.39-8.19-1.714l-2.146 5.004c.669.344 3.849 2.139 10.058 2.139 6.025 0 10.859-2.984 10.859-8.539-.052-5.169-3.527-7.13-7.787-7.863M135.381 27.947c0-4.902-3.736-9.21-10.454-9.21-7.625 0-10.553 4.761-10.553 9.21v8.901c0 6.157 3.934 9.729 10.553 9.729 5.839 0 8.87-3.377 9.771-5.404l-4.815-2.893c-.411 1.191-2.316 2.862-4.918 2.862-3.525 0-4.881-1.968-4.881-4.433l-.021-1.467h15.318v-7.295zm-5.702 2.678h-9.615v-1.95c0-2.175 1.093-4.508 4.838-4.508 3.609 0 4.777 2.272 4.777 4.402v2.056zM139.031 27.957v18.101h5.697V28.444c0-1.538.873-4.167 5.059-4.167.657 0 2.142.186 2.616.275v-5.527c-.515-.124-1.692-.289-2.907-.289-7.248.001-10.465 4.546-10.465 9.221" />
    <path fill="#717073" d="M269.18 19.258v.603h-1.117v3.084h-.605v-3.084h-1.119v-.603zM270.147 22.945h-.599v-3.683h.673l1.014 2.393 1.025-2.393h.674v3.683h-.602v-1.691l.114-1h-.053l-.311.871-.603 1.309h-.474l-.608-1.309-.308-.885h-.05l.108 1.019z" />
</svg>
