<svg xmlns="http://www.w3.org/2000/svg" viewBox="45 0 260 128">
  <path id="squarespace-logo-horizontal" style="fill: #222" d="M170.05469,53.87402l-8.20215,18.12598h2.08301l2.13379-4.75684h9.7959l2.1084,4.75684h2.18555l-8.20215-18.12598H170.05469zM166.86621,65.39257l4.11426-9.15332l4.08789,9.15332H166.86621zM110.99902,62.02441c-3.95898-0.84863-4.88477-1.7998-4.88477-3.49707v-0.05176c0-1.61914,1.49121-2.90527,3.83105-2.90527c1.85059,0,3.52246,0.5918,5.19336,1.9541l1.18262-1.56836c-1.8252-1.46484-3.70215-2.21094-6.3252-2.21094c-3.41895,0-5.91309,2.08301-5.91309,4.91113v0.05078c0,2.95703,1.90234,4.29395,6.04199,5.19434c3.7793,0.79688,4.67969,1.74805,4.67969,3.41895v0.05176c0,1.77441-1.59473,3.05957-4.01172,3.05957c-2.49316,0-4.29297-0.84863-6.16992-2.5459l-1.25977,1.49219c2.15918,1.92773,4.49902,2.87891,7.35254,2.87891c3.57422,0,6.14551-2.00488,6.14551-5.09082v-0.05078C116.86133,64.36425,115.00977,62.89843,110.99902,62.02441zM139.0752,63.00097v-0.05078c0-4.96289-3.67676-9.25684-9.15332-9.25684s-9.2041,4.3457-9.2041,9.30762v0.05176c0,4.96191,3.67578,9.25586,9.15234,9.25586c2.21191,0,4.13965-0.71973,5.65723-1.90234l2.39062,2.13379l1.38867-1.5166l-2.36523-2.00586C138.27832,67.37206,139.0752,65.23827,139.0752,63.00097zM135.4502,67.7578l-3.36816-3.05957l-1.36328,1.5166l3.36816,2.87988c-1.13086,0.84863-2.57129,1.33691-4.16504,1.33691c-4.11328,0-7.09668-3.34277-7.09668-7.43066v-0.05078c0-4.08887,2.93164-7.37988,7.04492-7.37988c4.11426,0,7.09668,3.34277,7.09668,7.43066v0.05176C136.9668,64.85253,136.42676,66.47167,135.4502,67.7578zM157.07129,64.46679c0,3.93359-2.1084,5.93945-5.4248,5.93945c-3.41992,0-5.50195-2.18555-5.50195-6.06836V54.00195h-2.03125v10.46484c0,5.09082,3.0332,7.81641,7.48145,7.81641c4.5,0,7.50781-2.72559,7.50781-7.9707V54.00195h-2.03125V64.46679zM281.81543,70.43163c-3.95996,0-6.96777-3.26562-6.96777-7.43066v-0.05078c0-4.13965,2.98242-7.37988,6.96777-7.37988c2.44238,0,4.13965,1.02832,5.65625,2.46875l1.38867-1.49121c-1.7998-1.69727-3.75391-2.85449-7.01953-2.85449c-5.2959,0-9.10156,4.2168-9.10156,9.30762v0.05176c0,5.16797,3.83105,9.25586,9.02441,9.25586c3.26562,0,5.32227-1.25977,7.19922-3.16211l-1.33691-1.31152C285.90332,69.48046,284.2832,70.43163,281.81543,70.43163zM260.96484,53.87402l-8.20215,18.12598h2.08301l2.13379-4.75684h9.7959l2.1084,4.75684h2.18555l-8.20215-18.12598H260.96484zM257.77637,65.39257l4.11426-9.15332l4.08789,9.15332H257.77637zM295.69824,70.14843V63.8496h9.82129v-1.85156h-9.82129v-6.14453h10.97852v-1.85156h-13.00977v17.99805h13.1377v-1.85156H295.69824zM205.61133,63.8496h9.82129v-1.85156h-9.82129v-6.14453h10.97852v-1.85156h-13.00977v17.99805h13.1377v-1.85156h-11.10645V63.8496zM198.20703,59.40136v-0.05078c0-1.41406-0.51465-2.6748-1.38867-3.54883c-1.13087-1.13086-2.90527-1.7998-5.11621-1.7998h-7.73926v17.99805h2.03125v-6.99316h5.14258l5.21875,6.99316h2.49414l-5.52734-7.35352C196.15039,64.1328,198.20703,62.38378,198.20703,59.40136zM185.99414,63.18066V55.8789h5.55371c2.90527,0,4.60254,1.33691,4.60254,3.54883v0.05078c0,2.31445-1.92871,3.70215-4.62793,3.70215H185.99414zM228.15918,62.02441c-3.95996-0.84863-4.88574-1.7998-4.88574-3.49707v-0.05176c0-1.61914,1.49121-2.90527,3.83105-2.90527c1.85156,0,3.52246,0.5918,5.19336,1.9541l1.18359-1.56836c-1.82617-1.46484-3.70312-2.21094-6.3252-2.21094c-3.41992,0-5.91406,2.08301-5.91406,4.91113v0.05078c0,2.95703,1.90332,4.29395,6.04199,5.19434c3.78027,0.79688,4.67969,1.74805,4.67969,3.41895v0.05176c0,1.77441-1.59375,3.05957-4.01074,3.05957c-2.49414,0-4.29395-0.84863-6.1709-2.5459l-1.25977,1.49219c2.16016,1.92773,4.5,2.87891,7.35352,2.87891c3.57422,0,6.14453-2.00488,6.14453-5.09082v-0.05078C234.02051,64.36425,232.16992,62.89843,228.15918,62.02441zM245.7959,54.00195h-6.73633v17.99805h2.03125v-6.35059h4.37012c3.83105,0,7.07129-2.00586,7.07129-5.8877v-0.05176C252.53223,56.1621,249.8584,54.00195,245.7959,54.00195zM250.47461,59.83886c0,2.36523-1.9541,3.95898-4.93652,3.95898h-4.44727V55.8789h4.55078c2.90527,0,4.83301,1.33691,4.83301,3.9082V59.83886zM74.91425,55.45647c0.60547-0.60547,0.60547-1.58527,0-2.19073c-0.60541-0.60541-1.58527-0.60541-2.19067,0L58.26581,67.7235c-2.05383,2.05383-5.39545,2.05383-7.44818,0.0011c-2.05377-2.05377-2.05377-5.39545,0-7.44922l11.63062-11.63062c0.60541-0.60547,0.60541-1.58527,0-2.19073c-0.60547-0.60541-1.58527-0.60541-2.19073,0L48.62689,58.08465c-3.26141,3.26147-3.26141,8.56921,0,11.83063c3.26147,3.26147,8.56818,3.26038,11.82959-0.00104L74.91425,55.45647zM53.4469,65.09533c0.60541,0.60541,1.58527,0.60541,2.19067,0l14.45776-14.45776c2.05377-2.05377,5.39545-2.05377,7.44818-0.0011c0.60541,0.60547,1.58527,0.60547,2.19067,0c0.60547-0.60541,0.60547-1.58521,0-2.19067c-3.26141-3.26147-8.56812-3.26038-11.82953,0.0011L53.4469,62.90466C52.84143,63.51006,52.84143,64.48986,53.4469,65.09533zM84.5531,62.90466c-0.60541-0.60547-1.58527-0.60547-2.19067,0L67.90466,77.36242c-2.05377,2.05377-5.39545,2.05377-7.44818,0.00104c-0.60541-0.60541-1.58527-0.60541-2.19067,0c-0.60547,0.60547-0.60547,1.58527,0,2.19067c3.26141,3.26147,8.56812,3.26038,11.82953-0.00104L84.5531,65.09533C85.15857,64.48986,85.15857,63.51006,84.5531,62.90466zM77.54352,58.08575L63.08575,72.54351c-0.60547,0.60541-0.60547,1.58527,0,2.19067c0.60541,0.60547,1.58527,0.60547,2.19067,0l14.45776-14.45776c2.05383-2.05377,5.39545-2.05377,7.44818-0.00104c2.05377,2.05377,2.05377,5.39545,0,7.44922L75.55176,79.35522c-0.60541,0.60541-0.60541,1.58527,0,2.19067c0.60547,0.60547,1.58527,0.60547,2.19073,0l11.63062-11.63062c3.26141-3.26141,3.26141-8.56915,0-11.83063C86.11163,54.82323,80.80493,54.82427,77.54352,58.08575z"/>
</svg>
