<svg fill="#414b56" viewBox="0 0 300 24" xmlns="http://www.w3.org/2000/svg">
  <title>Warby Parker</title>
  <path d="M290.634 11.716h-5.588v-8.03h5.783c2.696.072 4.662 1.63 4.67 4.18-.03 2.245-1.484 3.786-4.866 3.85zm9.098 9.183c-1.676-2.24-4.183-5.558-5.276-7.01 2.46-1.057 4.172-3.175 4.172-6.08-.007-3.738-3.08-7.025-7.734-7.025h-8.146L282.69.77c-.308 0-.878.57-.878.992-.01.357-.01 19.372 0 19.808.006.153-.024.318.166.62.246.332.61.35.77.35h1.357c.075 0 .363.022.713-.323.257-.296.215-.48.228-.647v-7.015h6.068l5.52 7.485c.144.238.647.5 1.01.5h1.323c.096 0 1.042-.247 1.042-.866.03-.293-.193-.68-.278-.775zm-26.713-.163c-.02-.177.095-.34-.21-.815-.343-.286-.565-.286-.74-.286-.02 0-.078.024-.13 0h-11.47v-6.693h11.253c.684 0 .954-.942.954-1.196v-.62c0-.158-.303-1.1-.954-1.1H260.5V3.69h11.35c.142.016.557-.005.833-.366.207-.354.19-.537.2-.738v-.76c-.056-.177.036-.388-.206-.77-.335-.27-.607-.27-.766-.27h-13.846c-.086-.016-.247-.016-.52.167-.356.336-.24.61-.255.66v19.826c.015.194-.085.377.147.69.24.356.598.41.785.41h13.848c.13 0 .337.007.684-.262.35-.39.255-.604.265-.787v-.753zM241.26 9.904l7.033-7.657c.114-.143.233-.31.233-.525-.05-.586-.493-.937-1.026-.937h-1.3c-.438-.045-.886.263-1.01.35L234.612 12.81V1.8c0-.15.024-.362-.21-.707-.264-.3-.63-.308-.79-.308H232.4c-.15 0-.436 0-.753.254-.257.28-.25.563-.25.722-.007.278-.007 19.604 0 19.826 0 .156 0 .452.262.672.256.238.565.28.782.28h1.085c.19-.018.427.007.8-.23.31-.294.285-.605.285-.722v-4.452l4.39-4.81 7.485 9.595c.284.224.377.483 1.18.62h1.423c.33 0 .998-.323.998-.857-.007-.308-.102-.452-.222-.61l-8.605-11.17zm-27.4 1.812h-5.627v-8.03h5.77c2.702.072 4.706 1.63 4.728 4.18-.03 2.245-1.488 3.786-4.87 3.85zm3.813 2.173c2.456-1.057 4.187-3.175 4.178-6.08 0-3.738-3.046-7.025-7.775-7.025h-8.12l-.03-.015c-.3 0-.883.57-.883.992V21.57c.007.153-.04.318.183.62.244.332.61.35.73.35h1.342c.057 0 .386.022.72-.323.27-.296.216-.48.216-.647v-7.015h6.1l5.55 7.485c.11.238.612.5.992.5h1.27c.135 0 1.082-.247 1.082-.866.013-.293-.203-.68-.288-.775-1.69-2.24-4.143-5.558-5.267-7.01zm-35.183.912c.98-1.895 3.122-6.143 4.553-9.143.017-.01.025-.016.025-.026.03.016.038.025.062.052 1.462 2.966 3.562 7.22 4.49 9.116h-9.13zM187.988.858c0-.018-.318-.62-.92-.595-.57-.024-.865.595-.865.595-2.016 3.785-9.175 18-10.31 20.276-.097.104-.173.247-.173.59.076.816.92.816 1.082.816h1.068c.515.086 1.143-.475 1.163-.698l2.132-4.208h11.84l2.15 4.293c.022.193.57.62.92.62.015 0 .04 0 .06-.007h1.33c.238 0 1.008-.262 1.008-.826-.018-.263-.112-.388-.144-.546-1.273-2.558-8.405-16.437-10.342-20.31zM164.98 11.765c-1.762-.018-4.5-.018-5.834-.018V3.69h5.774c2.62.068 4.654 1.493 4.654 4.032-.014 2.692-2.022 4.016-4.593 4.043zm.038-10.98H156.862c-.112-.015-.423.01-.654.263-.225.24-.272.49-.272.714V21.57c.047.153-.05.318.244.67.277.3.554.3.674.3H158.267c.103 0 .49 0 .73-.396.206-.327.128-.46.15-.574v-6.918h5.264c4.848-.01 8.364-2.65 8.382-6.93-.018-4.3-3.7-6.937-7.774-6.937zm-33.575 0h-1.273c-.42-.02-.88.39-.998.66-1.095 1.635-4.867 7.412-6.335 9.698C121.36 8.823 117.6 3 116.504 1.36c0-.193-.736-.685-1.056-.575h-1.127c-.22 0-.992 0-1.148.827.014.278.118.418.156.507 1.587 2.452 7.058 10.95 7.913 12.215v7.19c.017.198-.046.396.24.714.205.258.518.3.677.3h1.242c.19 0 .46 0 .803-.3.277-.377.214-.58.214-.79v-7.115c.85-1.24 6.13-9.39 7.848-12.112.065-.193.152-.254.176-.61-.056-.785-.888-.828-.997-.828zM100.11 19.66h-7.083v-6.668h7.026c3.07.046 4.636 1.413 4.663 3.387-.09 2.245-1.24 3.152-4.605 3.28zM93.028 3.685h6.147c2.93.08 4.326 1.333 4.363 3.213-.166 2.41-.855 3.128-3.845 3.253h-6.665V3.686zm11.767 7.586c1.23-.912 2.007-2.447 1.962-4.497 0-3.867-3.58-5.988-7.786-5.988h-8.15c-.145 0-.446 0-.747.238-.295.232-.295.58-.295.778v19.77c0 .318.517.97.97.97h9.592c4.65 0 7.59-2.065 7.605-6.16 0-2.277-1.23-4.166-3.15-5.11zm-32.57.446h-5.677V3.69h5.818c2.654.068 4.65 1.627 4.7 4.175-.096 2.246-1.525 3.81-4.842 3.85zm3.785 2.18c2.452-1.063 4.198-3.18 4.198-6.086C80.16 4.063 77.132.785 72.445.785h-8.167c-.117-.015-.436.01-.65.263-.23.24-.254.49-.254.714V21.57c0 .153-.056.318.158.61.278.36.642.36.787.36h1.332c.12 0 .39 0 .697-.3.27-.352.182-.517.214-.67v-6.982h6.105l5.544 7.452c.17.22.57.5.93.5h1.342c.142 0 1.062-.206 1.062-.866.015-.3-.22-.69-.295-.775-1.666-2.223-4.133-5.558-5.244-7.004zm-35.375.906c.937-1.895 3.095-6.143 4.564-9.143 0-.01.007-.016.007-.04.007.03.026.04.04.066 1.493 2.966 3.556 7.22 4.524 9.116h-9.135zM46.098.858c0-.018-.263-.62-.884-.595-.57-.024-.91.595-.91.595-1.96 3.785-9.137 18-10.277 20.276-.09.104-.2.247-.2.59.11.816.97.816 1.12.816h1.07c.51.086 1.106-.475 1.176-.698l2.046-4.208h11.875l2.127 4.293c.02.193.6.62.93.62.02 0 .06 0 .077-.007h1.357c.228 0 .98-.262.98-.826 0-.263-.07-.388-.154-.546C55.2 18.61 48.08 4.73 46.098.858zM29.723.785H28.65c-.266-.085-1.1.297-1.1.653L21.877 16.34 16.36 1.326C16.26.85 15.5.69 15.443.73h-.086c-.284-.094-.886.39-.886.61L9.128 16.353C7.794 12.977 4.94 5.722 3.313 1.57c-.068-.33-.54-.83-1.043-.785H.887c-.09 0-.22-.015-.52.113-.278.16-.382.54-.365.69 0 .247.08.357.115.53l8.047 20.3c.305.486.756.58.9.58h.064s.725.044.943-.64c1.533-4.215 4.113-11.167 5.35-14.468 1.212 3.34 3.792 10.418 5.314 14.474.1.485.89.653.976.634.062.02.853-.15.925-.61 2.698-6.76 5.928-14.904 8.015-20.27.054-.173.08-.237.102-.506 0-.714-.944-.827-1.03-.827z"/>
</svg>
