<?xml version="1.0" encoding="UTF-8"?>
<svg version="1.1" viewBox="0 0 170 170" xmlns="http://www.w3.org/2000/svg">
<title>rocket-ship</title>
<desc>Created with Sketch.</desc>
<g fill="none" fill-rule="evenodd">
<g fill-rule="nonzero">
<path d="m51.044 118.24c7.915 7.8829 10.297 20.848 2.3879 28.737-7.915 7.8829-31.77 16.666-39.684 8.7831-7.9095-7.8829 0.9105-31.653 8.82-39.536 7.9138-7.8835 20.567-5.872 28.477 2.0164z" fill="#F8E71C"/>
<path d="m124.13 100.71c11.917 24.707-17.163 82.218-30.61 65.944-5.4527-6.5967-5.0927-17.121-19.329-30.674-0.021174 0.084697 5.1829 0.92139 11.276-4.5954 14.061-10.832 38.663-30.584 38.663-30.674z" fill="#E64C3C"/>
<path d="m74.052 45.376c-26.709-12.103-88.571 16.788-70.941 30.377 7.1473 5.5114 18.487 5.2095 33.178 19.583-0.090142 0.021174-1.0164-5.2095 4.9022-11.303 11.588-14.071 32.76-38.657 32.86-38.657z" fill="#E64C3C"/>
<path d="m62.289 42.634l-1.1543-0.058078c-5.8605 7.1575-20.181 24.803-28.911 35.968-3.5791 3.8858-4.5477 7.4171-4.754 9.5031 1.7103 1.1755 3.4732 2.5306 5.2942 4.0873 0.44466-2.1072 1.6147-5.0456 4.5422-8.2272 11.144-14.262 31.489-39.197 31.585-39.193-1.9964-0.95285-4.2415-1.6038-6.6022-2.0805z" fill="#CF5349"/>
<path d="m124.29 101.1c-3.4835 2.933-25.56 21.033-38.679 31.362-4.3359 4.0128-8.1848 4.7648-10.106 4.8386 1.8845 1.8954 3.5156 3.7321 4.9022 5.5059 1.726 0.026619 5.8816-0.51908 10.572-4.855 10.98-8.6506 28.175-22.685 35.55-28.779-0.39687-2.9215-1.1277-5.6481-2.239-8.0729z" fill="#CF5349"/>
<path d="m32.313 111.46c1.1011 4.9342 4.4841 10.816 9.7517 16.073 5.241 5.2307 11.102 8.5974 16.031 9.7202 0.83669-6.6282-1.9057-13.886-7.0517-19.011-5.1194-5.1042-12.213-7.6875-18.731-6.7825z" fill="#D7B354"/>
<path d="m168.5 0.92683c3.9814 3.7642-1.8797 59.649-40.076 97.591-23.649 23.495-39.335 32.59-43.089 35.846-10.381 4.7068-17.269 7.2368-37.842-13.209-20.525-20.393-16.576-26.047-12.023-35.815 3.3776-3.7908 12.732-19.54 36.387-43.041 38.18-37.938 92.477-45.069 96.643-41.374z" fill="#EBEBEB"/>
<path d="m120.76 48.59c8.2326 8.2483 8.2326 21.621 0 29.875-8.2374 8.2483-21.584 8.2483-29.822 0-8.2326-8.2538-8.2326-21.626 0-29.875 8.238-8.2538 21.585-8.2538 29.822 0z" fill="#3C3D43"/>
<path d="m113.37 56.075c4.1508 4.1242 4.1508 10.81 0 14.935-4.1453 4.1242-10.879 4.1242-15.035 0-4.1453-4.1242-4.1453-10.81 0-14.935 4.1605-4.1242 10.89-4.1242 15.035 0z" fill="#CCD0D2"/>
</g>
</g>
</svg>
