<?xml version="1.0" encoding="UTF-8"?>
<svg version="1.1" viewBox="0 0 170 195" xmlns="http://www.w3.org/2000/svg" xmlns:xlink="http://www.w3.org/1999/xlink">
<title>Confused</title>
<desc>Created with Sketch.</desc>
<defs>
<path id="a" d="m56.965 190.14c-18.508 0.663-27.725-10.67-24.238-28.431 1.124-5.725 2.948-11.233 5.296-16.555 1.994-4.52 2.886-9.154 2.288-14.075-0.195-1.603-0.912-3.608 0.895-4.538 1.817-0.936 3.87-0.582 5.714 0.533 2.722 1.644 3.486 4.14 3.649 7.162 0.29784 5.5408-2.1532 10.393 0.22015 12.131s9.3214 0.58199 14.465 0c10.72-1.213 21.129-3.654 32.188-5.651 1.632-0.295 3.275-0.523 4.909-0.804 2.544-0.436 4.846-0.13 5.455 2.826 0.616 2.982-1.416 4.131-3.928 4.643-5.853 1.193-11.734 2.256-17.559 3.568-3.706 0.835-7.346 1.976-10.988 3.071-1.351 0.406-3.331 0.64-2.802 2.704 0.413 1.607 2.1654 0.33516 3.445 0.23 2.7986-0.23 6.18 0.212 5.467 5.247-0.338 2.379-0.89444 4.1726-3.477 4.673-2.633 0.51016-3.938-0.809-3.936 0.897 1e-3 1.562 1.303 0 3.684 0.438 2.3797 0.43777 4.134 1.216 3.985 4.446-0.127 2.763-0.61715 4.6545-3.851 5.228-1.872 0.332-2.913-0.848-2.897 0.873 0.014 1.558 1.5264 0.488 2.676 0.488s4.008 0.124 3.838 3.336c-0.136 2.554-0.778 4.522-3.821 4.872-7.258 0.834-14.402 2.581-20.677 2.688l52.293 4.0271"/>
<filter id="b" x="-7.8%" y="-8.8%" width="115.5%" height="117.6%">
<feOffset dx="0" dy="0" in="SourceAlpha" result="shadowOffsetOuter1"/>
<feGaussianBlur in="shadowOffsetOuter1" result="shadowBlurOuter1" stdDeviation="2"/>
<feColorMatrix in="shadowBlurOuter1" values="0 0 0 0 0   0 0 0 0 0   0 0 0 0 0  0 0 0 0.315160779 0"/>
</filter>
</defs>
<g fill="none" fill-rule="evenodd">
<circle cx="85" cy="85" r="85" fill="#F8E71C" fill-rule="nonzero"/>
<g transform="translate(29 37)">
<path d="m85.898 51.576c-5.203 5.247-11.476 3.922-14.049-2.962-2.074-5.548-0.364-12.904 4.056-16.931 2.545-2.319 5.454-4.02 9.014-2.572 4.554 1.853 5.672 5.9279 5.672 10.103s-1.338 8.978-4.693 12.362z" fill="#3C3D43"/>
<path d="m38.767 33.401c-7e-3 5.282-1.941 9.723-6.007 13.099-4.266 3.543-8.966 2.594-11.674-2.213-3.753-6.662-1.075-16.672 5.547-20.6 2.456-1.456 5.03-1.6 7.545-0.178 2.94 1.663 4.549 5.247 4.589 9.892" fill="#3C3E43"/>
<path transform="translate(21.337 11.131) rotate(7) translate(-21.337 -11.131)" d="m40.638 13.633c0.637 0.931 1.544 2.03 0.648 3.156-1.001 1.257-2.111 0.178-3.116-0.258-3.35-1.449-6.582-3.261-10.047-4.329-1.2036-0.37075-4.5456-1.0707-7.2145-0.9268-2.6689 0.14386-9.5427 2.3111-13.93 5.3478-1.482 1.026-3.204 3.493-5.059 1.417-1.689-1.89-0.763-4.534 0.677-6.459 3.635-4.859 9.15-6.352 14.671-7.674 1.596-0.382 3.296-0.337 4.989-0.491 7.816 0.348 13.955 3.746 18.381 10.217z" fill="#3C3E43"/>
<path transform="translate(91.454 19.687) rotate(-4) translate(-91.454 -19.687)" d="m75.74 23.982c-1.577 0.022-3.722 0.46-4.143-1.711-0.377-1.948 1.373-2.97 2.956-3.482 10.953-3.542 22.007-5.103 33.184-1.01 1.632 0.598 3.996 1.21 3.575 3.485-0.20257 1.0963-9.0639-1.2521-16.856-0.86109-7.9792 0.40037-14.935 3.5275-18.716 3.5791z" fill="#3C3E43"/>
<path d="m45.236 82.27c9.947 0.178 19.39 2.783 28.732 5.869 0.474 0.156 0.955 0.314 1.396 0.54 1.419 0.727 3.622 1.15 2.801 3.344-0.716 1.916-2.577 0.89-3.94 0.57-4.532-1.061-9.017-2.331-13.567-3.305-8.981-1.923-18.045-2.9-27.248-1.997-1.354 0.132-3.401 0.962-3.687-1.208-0.251-1.902 1.78-2.107 3.174-2.501 4.036-1.141 8.183-1.354 12.339-1.312" fill="#F29C1F"/>
</g>
<use fill="black" filter="url(#b)" xlink:href="#a"/>
<use fill="#F8E71C" fill-rule="evenodd" xlink:href="#a"/>
</g>
</svg>
