<?xml version="1.0" encoding="UTF-8" standalone="no"?>
<!DOCTYPE svg PUBLIC "-//W3C//DTD SVG 1.1//EN" "http://www.w3.org/Graphics/SVG/1.1/DTD/svg11.dtd">
<svg version="1.1" xmlns="http://www.w3.org/2000/svg" xmlns:xlink="http://www.w3.org/1999/xlink" preserveAspectRatio="xMidYMid meet" viewBox="0 0 640 640" width="640" height="640"><defs><path d="M0 97.72C0 142.18 0 497.82 0 542.28C0 596.25 143.28 640 320 640C496.72 640 640 596.25 640 542.28C640 497.82 640 142.18 640 97.72C640 43.75 496.72 0 320 0C143.28 0 0 43.75 0 97.72Z" id="brHGEFEKX"></path><path d="M320 61.98C184.64 61.98 74.91 177.5 74.91 320C74.91 462.5 184.64 578.02 320 578.02C455.36 578.02 565.09 462.5 565.09 320C565.09 177.5 455.36 61.98 320 61.98Z" id="b17epxxbm"></path><path d="M169.49 161.55C86.37 249.06 86.37 390.94 169.49 478.45C252.62 565.95 553.63 249.06 470.5 161.55C387.38 74.05 252.61 74.05 169.49 161.55Z" id="a396J0K9ZG"></path></defs><g><g><g><use xlink:href="#brHGEFEKX" opacity="1" fill="#3b3b3b" fill-opacity="1"></use><g><use xlink:href="#brHGEFEKX" opacity="1" fill-opacity="0" stroke="#000000" stroke-width="1" stroke-opacity="0"></use></g></g><g><use xlink:href="#b17epxxbm" opacity="1" fill="#EAB42D" fill-opacity="1"></use><g><use xlink:href="#b17epxxbm" opacity="1" fill-opacity="0" stroke="#000000" stroke-width="1" stroke-opacity="0"></use></g></g><g><use xlink:href="#a396J0K9ZG" opacity="1" fill="#EDCB3B" fill-opacity="1"></use><g><use xlink:href="#a396J0K9ZG" opacity="1" fill-opacity="0" stroke="#000000" stroke-width="1" stroke-opacity="0"></use></g></g></g></g></svg>
