<?xml version="1.0" encoding="UTF-8"?>
<svg width="170px" height="170px" viewBox="0 0 170 170" version="1.1" xmlns="http://www.w3.org/2000/svg" xmlns:xlink="http://www.w3.org/1999/xlink">
    <!-- Generator: Sketch 44.1 (41455) - http://www.bohemiancoding.com/sketch -->
    <title>rocket-ship</title>
    <desc>Created with Sketch.</desc>
    <defs></defs>
    <g id="Page-1" stroke="none" stroke-width="1" fill="none" fill-rule="evenodd">
        <g id="rocket-ship" fill-rule="nonzero">
            <path d="M51.0441637,118.238932 C58.9591459,126.121851 61.3409609,139.087224 53.4320285,146.975587 C45.5170463,154.858505 21.6619929,163.641637 13.7476157,155.758719 C5.83807829,147.875801 14.6581139,124.105445 22.5676512,116.222527 C30.4814235,108.339004 43.1346263,110.350569 51.0441637,118.238932 Z" id="Shape" fill="#F8E71C"></path>
            <path d="M124.129039,100.710178 C136.045979,125.417651 106.965694,182.927865 93.5187544,166.653843 C88.0660498,160.057117 88.4260142,149.532847 74.1901779,135.980036 C74.1690036,136.064733 79.3730605,136.901423 85.4664413,131.384591 C99.5274377,120.552384 124.129039,100.80032 124.129039,100.710178 Z" id="Shape" fill="#E64C3C"></path>
            <path d="M74.052242,45.3760854 C47.3434875,33.2734164 -14.518363,62.1637367 3.11142349,75.753452 C10.2586833,81.2648399 21.5984698,80.9629537 36.2898577,95.336121 C36.1997153,95.3572954 35.2734875,90.1266192 41.1920285,84.0332384 C52.7804626,69.9619573 73.9518149,45.3760854 74.052242,45.3760854 Z" id="Shape" fill="#E64C3C"></path>
            <path d="M62.288968,42.6337011 L61.1346619,42.5756228 C55.2741993,49.7331673 40.9536655,67.3786833 32.2237722,78.5436299 C28.6446975,82.4294306 27.676121,85.9607117 27.4698221,88.0466904 C29.1801068,89.2221708 30.9430249,90.577331 32.7640214,92.1339502 C33.2086833,90.0267972 34.3787189,87.0883986 37.3062278,83.9067972 C48.450605,69.6443416 68.7955516,44.709395 68.8911388,44.7142349 C66.8946975,43.7613879 64.6496085,43.110427 62.288968,42.6337011 Z" id="Shape" fill="#CF5349"></path>
            <path d="M124.293594,101.101601 C120.810107,104.034555 98.7337011,122.135018 85.6146619,132.463879 C81.2787544,136.476726 77.4298577,137.228719 75.5084342,137.302527 C77.3929537,139.197936 79.0239858,141.034662 80.410605,142.80847 C82.1366192,142.835089 86.292242,142.289395 90.982669,137.953488 C101.962491,129.302847 119.1579,115.26847 126.532633,109.174484 C126.135765,106.253025 125.404947,103.52637 124.293594,101.101601 Z" id="Shape" fill="#CF5349"></path>
            <path d="M32.3133096,111.457082 C33.4143772,116.391317 36.7974377,122.272954 42.0650178,127.530249 C47.3059786,132.760925 53.1670463,136.127651 58.0958363,137.250498 C58.9325267,130.622313 56.1901423,123.364342 51.0441637,118.239537 C45.9248043,113.135302 38.8307829,110.552028 32.3133096,111.457082 Z" id="Shape" fill="#D7B354"></path>
            <path d="M168.504484,0.92683274 C172.485872,4.69103203 166.624804,60.5756584 128.428043,98.5183274 C104.779288,122.013416 89.0927046,131.108719 85.339395,134.364733 C74.9579004,139.071495 68.0701779,141.60153 47.497153,121.156157 C26.9719217,100.763416 30.9212456,95.1092527 35.4743416,85.34121 C38.8519573,81.5503915 48.2067972,65.8008897 71.8609964,42.3003559 C110.041423,4.36252669 164.337972,-2.76839858 168.504484,0.92683274 Z" id="Shape" fill="#EBEBEB"></path>
            <path d="M120.756868,48.5897509 C128.989466,56.8380783 128.989466,70.210605 120.756868,78.4643772 C112.519431,86.7127046 99.1729181,86.7127046 90.9348754,78.4643772 C82.7022776,70.210605 82.7022776,56.8380783 90.9348754,48.5897509 C99.1729181,40.3359786 112.519431,40.3359786 120.756868,48.5897509 Z" id="Shape" fill="#3C3D43"></path>
            <path d="M113.371851,56.0751957 C117.522633,60.1993594 117.522633,66.8856228 113.371851,71.0097865 C109.226512,75.1339502 102.492456,75.1339502 98.3368327,71.0097865 C94.1914947,66.8856228 94.1914947,60.1993594 98.3368327,56.0751957 C102.497295,51.951032 109.226512,51.951032 113.371851,56.0751957 Z" id="Shape" fill="#CCD0D2"></path>
        </g>
    </g>
</svg>