<?xml version="1.0" encoding="UTF-8"?>
<svg version="1.1" viewBox="0 0 182 170" xmlns="http://www.w3.org/2000/svg">
<title>Crying</title>
<desc>Created with Sketch.</desc>
<g fill="none" fill-rule="evenodd">
<g fill-rule="nonzero">
<circle cx="91" cy="85" r="85" fill="#F8E71C"/>
<path d="m46.916 133.16c0-24.806 20.047-44.917 44.775-44.917s44.775 20.11 44.775 44.917h-89.55z" fill="#C03A2B"/>
<path d="m46.916 133.16c0-11.274 20.047-20.417 44.775-20.417s44.775 9.1426 44.775 20.417" fill="#E64C3C"/>
<path d="m72.69 67.831c-2.251 0-4.0705-1.8252-4.0705-4.0833 0-6.7538-5.4789-12.25-12.211-12.25-6.7326 0-12.211 5.4962-12.211 12.25 0 2.2581-1.8195 4.0833-4.0705 4.0833s-4.0705-1.8252-4.0705-4.0833c0-11.258 9.1301-20.417 20.352-20.417 11.222 0 20.352 9.1589 20.352 20.417 0 2.2581-1.8195 4.0833-4.0705 4.0833z" fill="#F29C1F"/>
<path d="m141.89 67.831c-2.251 0-4.0705-1.8252-4.0705-4.0833 0-6.7538-5.4789-12.25-12.211-12.25s-12.211 5.4962-12.211 12.25c0 2.2581-1.8195 4.0833-4.0705 4.0833s-4.0705-1.8252-4.0705-4.0833c0-11.258 9.1301-20.417 20.352-20.417s20.352 9.1589 20.352 20.417c0 2.2581-1.8195 4.0833-4.0705 4.0833z" fill="#F29C1F"/>
<path d="m6.9459 110.78c6.8289 4.195 15.839 2.0216 20.021-4.829 4.1818-6.8505 9.6188-28.346 2.7898-32.541s-23.443 10.435-27.624 17.286-2.0152 15.889 4.8138 20.084z" fill="#48A0DC"/>
<path transform="translate(165.5 92.792) scale(-1 1) translate(-165.5 -92.792)" d="m155.95 110.78c6.8289 4.195 15.839 2.0216 20.021-4.829 4.1818-6.8505 9.6188-28.346 2.7898-32.541s-23.443 10.435-27.624 17.286c-4.1818 6.8505-2.0152 15.889 4.8138 20.084z" fill="#48A0DC"/>
</g>
</g>
</svg>
