<?xml version="1.0" encoding="UTF-8"?>
<svg version="1.1" viewBox="0 0 1281 366" xmlns="http://www.w3.org/2000/svg">
<title>Stride_Logo</title>
<desc>Created with Sketch.</desc>
<defs>
<radialGradient id="a" cx="40.043%" cy="88.433%" r="87.738%">
<stop stop-color="#B4B4B4" offset=".012121"/>
<stop stop-color="#4E4E4E" offset="1"/>
</radialGradient>
<linearGradient id="d" x1=".0035407%" x2="100.01%" y1="49.999%" y2="49.999%">
<stop stop-color="#4FBBEB" offset="0"/>
<stop stop-color="#0177A4" offset="1"/>
</linearGradient>
<linearGradient id="c" x1="35.926%" x2="64.932%" y1="37.508%" y2="62.712%">
<stop stop-color="#01558B" offset="0"/>
<stop stop-color="#528AC8" stop-opacity="0" offset="1"/>
</linearGradient>
<linearGradient id="b" x1="32.502%" x2="71.771%" y1="32.051%" y2="72.085%">
<stop stop-color="#01558B" offset="0"/>
<stop stop-color="#528AC8" stop-opacity="0" offset="1"/>
</linearGradient>
</defs>
<g fill="none" fill-rule="evenodd">
<g fill-rule="nonzero">
<g transform="translate(443 76)" fill="#818181">
<path d="m160.5 143.1v13c0 11.6-2.1 21.5-6.3 29.4s-10.4 14-18.7 18.1c-8.2 4.1-17.2 7-27 8.7s-21.4 2.6-34.8 2.6c-18.7 0-41.8-1.8-69.4-5.4v-35.9c33.4 5.2 56.7 7.8 70 7.8 26.1 0 39.2-6.7 39.2-20.2v-12.7c0-5.8-1.7-10.6-5.1-14.3s-10.3-5.6-20.5-5.6h-23c-43 0-64.5-17.1-64.5-51.3v-14.5c0-16.9 7.1-29.4 21.3-37.6s36.8-12.2 68-12.2c15.1 0 35.5 1.3 61.2 3.9v35c-30.6-3.6-51.5-5.4-62.7-5.4-15.5 0-26.1 1.3-32 3.9-5.8 2.6-8.7 7-8.7 13.3v13.9c0 10.3 8.7 15.4 25.9 15.4h23.5c22.9 0 39.3 4.2 49 12.7s14.6 21 14.6 37.4z"/>
<path d="m288.7 213.4c-8.4 1-16.6 1.5-24.4 1.5-6.8 0-12.8-0.3-17.9-0.7-5.1-0.5-10.4-1.7-16-3.6-5.5-1.9-10.1-4.4-13.6-7.5s-6.4-7.5-8.7-13.3c-2.3-5.7-3.5-12.5-3.5-20.3v-76.3h-29.6v-27.2h29.6v-42.2h44v42.2h40.1v27.2h-40.1v68.7c0 10.1 1.5 16.8 4.5 20.4 3 3.5 9.6 5.3 19.9 5.3 3.4 0 8.7-0.5 15.7-1.5v27.3z"/>
<path d="m409.6 99.4h-15.1c-12.1 0-21.2 1.9-27.3 5.6s-9.2 10.1-9.2 19.1v87.8h-44v-146h41.9v25.6c0.2-7.2 4.4-13.8 12.5-19.7s16.6-8.9 25.5-8.9h15.7v36.5z"/>
<path d="m479 48.7h-44v-35.6h44v35.6zm0 163.2h-44v-146h44v146z"/>
<path d="m663.6 211.9h-42.6v-16.6c-3.4 5.4-6.5 9.4-9.4 11.9-2.8 2.5-7 4.4-12.7 5.7-5.6 1.3-13.7 1.9-24.1 1.9-24.9 0-41.2-3.1-48.9-9.3s-11.5-20.1-11.5-41.6v-57c0-16.5 4.7-28 14-34.4 9.4-6.4 24.1-9.6 44.2-9.6 14.5 0 24.6 1.3 30.5 4.1 5.8 2.7 11.2 7.8 16.3 15.2v-81.4h44v211.1h0.2zm-44.1-43.7v-58.8c0-7.2-2-12.2-5.9-15.1-3.9-2.8-12.3-4.2-25.2-4.2-13.5 0-21.8 1.3-25 3.9s-4.8 8.2-4.8 16.9v55.8c0 8.1 1.6 13.5 4.8 16.4s10.8 4.4 22.6 4.4c14.3 0 23.4-1.3 27.4-3.8 4.1-2.5 6.1-7.7 6.1-15.5z"/>
<path d="m837 150.7h-94.7v13.3c0 8.2 2.9 14.2 8.7 17.9s16.8 5.6 32.9 5.6c14.5 0 30.8-2.1 48.9-6.3v28c-18.5 3.8-37.6 5.7-57.3 5.7-51.7 0-77.5-15.8-77.5-47.4v-52.5c0-18.7 6-32.1 18.1-40.1 12-8 30-12 54-12 22.5 0 39.3 3.8 50.4 11.5 11 7.6 16.6 21.2 16.6 40.7v35.6h-0.1zm-41.9-25v-21.1c0-4.6-1.9-8.2-5.6-10.7s-10.4-3.8-20-3.8c-10.7 0-17.8 1.3-21.6 3.8-3.7 2.5-5.6 6.1-5.6 10.7v21.1h52.8z"/>
</g>
<polygon points="137.39 182.99 68.724 251.65 0.055874 182.99 68.724 114.32" fill="url(#a)"/>
<path d="m362.28 182.82l-149.29-148.74 0.27937-0.27937-33.412-33.412-96.885 96.885 85.542 85.542-85.542 85.598 31.345 31.345 0.33524-0.33524 65.204 65.875 182.43-182.48zm-214.95 83.978l82.134-81.966-84.76-83.587 30.842-30.339 114.71 113.7-113.14 111.86-29.781-29.669z" fill="url(#d)"/>
<polygon points="188.35 83.587 225.45 46.487 212.99 34.083 213.27 33.803 213.16 33.692 175.72 71.071" fill="url(#c)"/>
<polygon points="160.58 279.98 148.01 267.47 115.38 300.1 127.89 312.72" fill="url(#b)"/>
</g>
</g>
</svg>
